<?xml version="1.0" encoding="UTF-8"?>
<svg version="1.1" xmlns="http://www.w3.org/2000/svg" width="512" height="512">
<path d="M0 0 C1.09569107 -0.00367669 2.19138214 -0.00735338 3.32027596 -0.01114148 C6.9932411 -0.02215779 10.66617793 -0.02601874 14.3391571 -0.02983093 C16.9725257 -0.03609727 19.60589131 -0.04273182 22.23925781 -0.04974365 C30.14346788 -0.06947156 38.04767915 -0.07957082 45.95190766 -0.08847144 C49.68096406 -0.09286145 53.41001904 -0.0982265 57.13907433 -0.10346031 C69.54787685 -0.12047095 81.95667852 -0.13496199 94.36549091 -0.14220905 C97.58294997 -0.14411873 100.80040902 -0.14603909 104.01786804 -0.147995 C105.21728859 -0.14872061 105.21728859 -0.14872061 106.44093987 -0.14946087 C119.37510421 -0.1577495 132.30917572 -0.18306736 145.24329958 -0.21557567 C158.54494943 -0.24873298 171.84655225 -0.26666573 185.14824361 -0.26985329 C192.6074561 -0.27201068 200.06653333 -0.28064514 207.52570534 -0.30631447 C213.88252296 -0.32814056 220.23917245 -0.33601404 226.5960233 -0.32634769 C229.8326713 -0.32183671 233.06890486 -0.32573195 236.3055191 -0.34310913 C268.2790011 -0.5050644 295.11867354 7.39609711 318.1426239 30.14717102 C318.85805359 30.79041321 319.57348328 31.4336554 320.31059265 32.09638977 C335.69117058 46.24897745 345.41764024 68.666875 348.1426239 89.14717102 C348.29257798 92.766251 348.2904486 96.38273975 348.28979492 100.00454712 C348.29347161 101.10023819 348.2971483 102.19592925 348.3009364 103.32482308 C348.31195271 106.99778822 348.31581366 110.67072505 348.31962585 114.34370422 C348.32589219 116.97707282 348.33252674 119.61043843 348.33953857 122.24380493 C348.35926648 130.14801499 348.36936574 138.05222627 348.37826636 145.95645478 C348.38265637 149.68551117 348.38802142 153.41456616 348.39325523 157.14362144 C348.41026587 169.55242397 348.42475691 181.96122564 348.43200397 194.37003803 C348.43391365 197.58749709 348.43583401 200.80495613 348.43778992 204.02241516 C348.43827366 204.82202886 348.4387574 205.62164256 348.4392558 206.44548699 C348.44754442 219.37965133 348.47286228 232.31372283 348.50537059 245.2478467 C348.53852791 258.54949655 348.55646065 271.85109937 348.55964822 285.15279073 C348.5618056 292.61200322 348.57044007 300.07108045 348.59610939 307.53025246 C348.61793549 313.88707008 348.62580896 320.24371957 348.61614261 326.60057042 C348.61163163 329.83721842 348.61552687 333.07345198 348.63290405 336.31006622 C348.79485932 368.28354821 340.89369781 395.12322066 318.1426239 418.14717102 C317.49938171 418.86260071 316.85613953 419.5780304 316.19340515 420.31513977 C302.00286667 435.73696142 278.84720678 446.12787486 258.1426239 448.14717102 C254.50398375 448.29093057 250.86860181 448.29073002 247.22746277 448.28761292 C246.13767325 448.29058404 245.04788373 448.29355516 243.92507029 448.29661632 C240.2781793 448.30527861 236.63132123 448.30680949 232.98442078 448.30830383 C230.36736481 448.31293381 227.75030952 448.31795871 225.133255 448.323349 C218.02545273 448.33690211 210.91765611 448.34295258 203.80984306 448.34735966 C199.3658219 448.35012773 194.9218029 448.35436615 190.4777832 448.35886383 C178.15729153 448.37105355 165.83680158 448.3813528 153.51630402 448.38473892 C152.72850348 448.38495849 151.94070294 448.38517805 151.12902966 448.38540427 C150.33941219 448.38562255 149.54979472 448.38584083 148.73624945 448.38606572 C147.13635604 448.38650918 145.53646262 448.38695574 143.93656921 448.3874054 C142.74618183 448.38773754 142.74618183 448.38773754 141.53174621 448.38807639 C128.68684385 448.39202028 115.84199835 448.40946312 102.99711794 448.43276492 C89.78810669 448.45653245 76.57912392 448.46894326 63.37009096 448.47010684 C55.96240419 448.47102068 48.5547915 448.476699 41.14712524 448.49492645 C34.83640568 448.51040069 28.52578309 448.51540514 22.21504813 448.50718835 C19.00098496 448.50330727 15.78715546 448.50575007 12.57310867 448.5182457 C-20.7388608 448.64010004 -47.05212644 440.61133535 -71.3573761 417.08467102 C-89.48886021 398.92404087 -100.00917194 373.91417033 -100.00454712 348.28979492 C-100.00822381 347.19410385 -100.0119005 346.09841279 -100.0156886 344.96951896 C-100.02670491 341.29655382 -100.03056586 337.62361699 -100.03437805 333.95063782 C-100.04064439 331.31726922 -100.04727894 328.68390361 -100.05429077 326.05053711 C-100.07401868 318.14632705 -100.08411794 310.24211577 -100.09301856 302.33788726 C-100.09740857 298.60883087 -100.10277362 294.87977588 -100.10800743 291.1507206 C-100.12501807 278.74191807 -100.13950911 266.3331164 -100.14675617 253.92430401 C-100.14866584 250.70684495 -100.15058621 247.48938591 -100.15254211 244.27192688 C-100.15302585 243.47231318 -100.15350959 242.67269948 -100.15400799 241.84885506 C-100.16229662 228.91469072 -100.18761448 215.98061921 -100.22012279 203.04649534 C-100.2532801 189.7448455 -100.27121285 176.44324268 -100.27440041 163.14155132 C-100.27655779 155.68233882 -100.28519226 148.22326159 -100.31086159 140.76408958 C-100.33268768 134.40727196 -100.34056116 128.05062247 -100.33089481 121.69377162 C-100.32638383 118.45712363 -100.33027907 115.22089006 -100.34765625 111.98427582 C-100.50961152 80.01079383 -92.60845001 53.17112138 -69.8573761 30.14717102 C-69.21413391 29.43174133 -68.57089172 28.71631165 -67.90815735 27.97920227 C-51.11901203 9.73329813 -24.29873524 -0.00438556 0 0 Z M-55.8573761 40.14717102 C-56.48901672 40.69760071 -57.12065735 41.2480304 -57.7714386 41.81513977 C-75.04135843 57.78390126 -82.87580603 81.23517723 -83.8573761 104.14717102 C-84.04504997 111.88572059 -84.00462652 119.6283342 -84.00263977 127.36860657 C-84.00563617 129.70582126 -84.00903981 132.04303546 -84.01281738 134.38024902 C-84.02161252 140.69867076 -84.0239936 147.01707893 -84.02463317 153.3355062 C-84.02546622 157.95724613 -84.0283707 162.57898308 -84.03146965 167.20072195 C-84.03975946 179.64795622 -84.04351376 192.09518336 -84.04279991 204.54242029 C-84.04275996 205.24721996 -84.04272 205.95201964 -84.04267883 206.67817688 C-84.04263795 207.38385132 -84.04259707 208.08952576 -84.04255495 208.81658427 C-84.04214883 220.2428971 -84.05171344 231.66917693 -84.0658172 243.09548023 C-84.08023254 254.86845023 -84.08708457 266.64140419 -84.08622342 278.41438323 C-84.08589324 285.0077203 -84.08876019 291.60102697 -84.09940147 298.19435692 C-84.10914539 304.40049469 -84.10911884 310.6065598 -84.10188484 316.81270027 C-84.10084679 319.0772449 -84.10315497 321.3417942 -84.1092453 323.60633087 C-84.1855455 353.96739641 -81.02724591 380.8487037 -59.8573761 404.14717102 C-59.30694641 404.77881165 -58.75651672 405.41045227 -58.18940735 406.06123352 C-42.49006511 423.03978142 -19.39847978 430.9695523 3.1426239 432.14717102 C10.90962144 432.3389927 18.6812156 432.29440698 26.44999695 432.29243469 C28.80839084 432.29543047 31.16678424 432.29883396 33.525177 432.3026123 C39.90557228 432.31141399 46.28595413 432.3137888 52.66635489 432.31442809 C56.65998488 432.31514078 60.6536126 432.31721592 64.64724159 432.31992531 C77.88191113 432.32871964 91.11657259 432.3333466 104.35124507 432.33259483 C105.06284686 432.33255488 105.77444865 432.33251492 106.50761414 432.33247375 C107.22009761 432.33243287 107.93258109 432.33239199 108.66665498 432.33234987 C120.20363777 432.33194374 131.74058787 432.34150817 143.27756121 432.35561212 C155.16010591 432.37002243 167.04263472 432.37687976 178.92518836 432.37601835 C185.58166487 432.37568798 192.23811188 432.37856253 198.89458275 432.3891964 C205.15979981 432.39893278 211.42494485 432.39891881 217.69016457 432.39167976 C219.97770417 432.39064078 222.2652484 432.39295559 224.55278015 432.39904022 C254.59199162 432.47370955 281.14621218 429.04258167 304.1426239 408.14717102 C304.77426453 407.59674133 305.40590515 407.04631165 306.0566864 406.47920227 C323.32660623 390.51044078 331.16105384 367.05916481 332.1426239 344.14717102 C332.33029777 336.40862145 332.28987433 328.66600784 332.28788757 320.92573547 C332.29088398 318.58852078 332.29428761 316.25130658 332.29806519 313.91409302 C332.30686033 307.59567128 332.3092414 301.27726311 332.30988097 294.95883584 C332.31071402 290.33709591 332.3136185 285.71535896 332.31671745 281.09362009 C332.32500726 268.64638582 332.32876156 256.19915868 332.32804772 243.75192175 C332.32800776 243.04712208 332.3279678 242.3423224 332.32792664 241.61616516 C332.32788576 240.91049072 332.32784487 240.20481629 332.32780275 239.47775777 C332.32739664 228.05144494 332.33696125 216.62516511 332.351065 205.19886182 C332.36548035 193.42589181 332.37233237 181.65293785 332.37147123 169.87995881 C332.37114104 163.28662174 332.37400799 156.69331507 332.38464928 150.09998512 C332.39439319 143.89384735 332.39436664 137.68778224 332.38713264 131.48164177 C332.38609459 129.21709714 332.38840278 126.95254784 332.3944931 124.68801117 C332.4707933 94.32694563 329.31249371 67.44563834 308.1426239 44.14717102 C307.59219421 43.5155304 307.04176453 42.88388977 306.47465515 42.23310852 C290.77531292 25.25456062 267.68372758 17.32478974 245.1426239 16.14717102 C237.37562636 15.95534934 229.60403221 15.99993506 221.83525085 16.00190735 C219.47685697 15.99891157 217.11846357 15.99550808 214.7600708 15.99172974 C208.37967552 15.98292805 201.99929367 15.98055324 195.61889291 15.97991395 C191.62526293 15.97920126 187.63163521 15.97712613 183.63800621 15.97441673 C170.40333668 15.9656224 157.16867521 15.96099545 143.93400273 15.96174721 C143.22240094 15.96178716 142.51079915 15.96182712 141.77763367 15.96186829 C141.06515019 15.96190917 140.35266671 15.96195005 139.61859282 15.96199217 C128.08161003 15.9623983 116.54465993 15.95283387 105.00768659 15.93872992 C93.12514189 15.92431961 81.24261309 15.91746228 69.36005944 15.9183237 C62.70358293 15.91865406 56.04713592 15.91577952 49.39066505 15.90514565 C43.125448 15.89540926 36.86030295 15.89542323 30.59508324 15.90266228 C28.30754363 15.90370126 26.0199994 15.90138645 23.73246765 15.89530182 C-6.30674382 15.82063249 -32.86096438 19.25176037 -55.8573761 40.14717102 Z " fill="#000000" transform="translate(147.8573760986328,47.85282897949219)"/>
<path d="M0 0 C1.47680022 -0.00374526 2.95359847 -0.00835023 4.43039364 -0.01373065 C8.45228308 -0.02586586 12.47408877 -0.02571155 16.4959923 -0.02334189 C20.84695036 -0.02293136 25.1978824 -0.03399459 29.54882812 -0.04345703 C38.05549716 -0.06001081 46.56213847 -0.06556383 55.06882227 -0.06668179 C61.9801907 -0.06763399 68.89155003 -0.07175281 75.80291557 -0.07808304 C95.40601172 -0.09567231 115.00908604 -0.10492437 134.61219013 -0.10342209 C135.66715943 -0.10334218 136.72212872 -0.10326227 137.80906677 -0.10317993 C138.86532487 -0.10309817 139.92158297 -0.10301641 141.00984889 -0.10293217 C158.16205244 -0.10211769 175.31416852 -0.12130198 192.46634675 -0.14945666 C210.08593723 -0.17815049 227.70548496 -0.19199921 245.32509941 -0.19026911 C255.21448752 -0.18960448 265.10378364 -0.19513 274.99315071 -0.21662521 C283.40366898 -0.2347899 291.81405346 -0.23922252 300.2245828 -0.22560637 C304.51680218 -0.21905564 308.80876451 -0.21903545 313.10095978 -0.23631287 C317.0267892 -0.25195388 320.9521558 -0.24927301 324.87797331 -0.2317446 C326.30093249 -0.22865502 327.72392546 -0.23238018 329.14684481 -0.24346475 C331.07545339 -0.25749862 333.00420229 -0.24465726 334.93280888 -0.2303524 C336.54212539 -0.23100451 336.54212539 -0.23100451 338.18395334 -0.23166978 C341.62702464 0.38992897 342.80515518 1.55936395 344.94847107 4.26742554 C345.47972107 6.26742554 345.47972107 6.26742554 345.44847107 8.26742554 C345.46393982 9.25742554 345.46393982 9.25742554 345.47972107 10.26742554 C344.7021386 13.19479482 343.27380654 14.3623286 340.94847107 16.26742554 C338.28818846 16.76833022 338.28818846 16.76833022 335.18662262 16.7696476 C334.00315451 16.77986179 332.8196864 16.79007598 331.60035563 16.80059969 C330.29883602 16.79147504 328.99731641 16.78235038 327.65635681 16.77294922 C326.26059503 16.7773913 324.86483793 16.7835925 323.46909094 16.79140413 C319.62867321 16.80782617 315.78864796 16.79934455 311.94823003 16.78691292 C307.80742763 16.77786943 303.66669726 16.79187188 299.52590942 16.80317688 C292.34558913 16.81969828 285.1653802 16.82180591 277.98504639 16.81441116 C267.58168848 16.80389414 257.17846669 16.81728837 246.77512687 16.83687572 C229.86822685 16.86824133 212.96135555 16.8832228 196.0544281 16.88656616 C195.04213668 16.88677015 194.02984526 16.88697414 192.98687834 16.88718431 C191.97341166 16.88738768 190.95994498 16.88759104 189.91576719 16.88780057 C175.58665759 16.89071311 161.25755692 16.89750098 146.92845154 16.9090271 C145.41914174 16.91023504 145.41914174 16.91023504 143.87934083 16.91146739 C127.05548296 16.92526012 110.23164077 16.94708193 93.40779734 16.97289693 C83.0431318 16.98828442 72.67851786 16.99556539 62.3138411 16.99210201 C55.19473237 16.9900495 48.07564915 16.99477745 40.95654702 17.00464536 C36.85893009 17.01003661 32.76137944 17.01222293 28.66376305 17.00547218 C-6.42410645 16.95210743 -39.84216129 18.43546059 -69.05152893 40.26742554 C-69.89844299 40.89262085 -70.74535706 41.51781616 -71.61793518 42.16195679 C-88.26834418 54.95593303 -99.51796091 70.27319539 -108.05152893 89.26742554 C-108.53492737 90.33476929 -109.01832581 91.40211304 -109.51637268 92.50180054 C-112.1211187 98.74052354 -113.85539734 105.05618181 -115.30152893 111.64242554 C-115.4649176 112.37243774 -115.62830627 113.10244995 -115.79664612 113.85458374 C-118.27022644 125.99965215 -118.19975559 138.60923497 -118.18283081 150.95204163 C-118.18453859 152.36456939 -118.18669081 153.77709668 -118.18924206 155.18962318 C-118.19379157 158.22952603 -118.19526938 161.26940867 -118.19427681 164.30931473 C-118.19266799 169.25757379 -118.1979197 174.20581311 -118.2039032 179.15406799 C-118.21197735 186.3352883 -118.21694621 193.51650511 -118.22019386 200.69772911 C-118.22571315 212.04591222 -118.24263015 223.39406567 -118.26153564 234.74223328 C-118.26789037 238.63063712 -118.27419897 242.51904104 -118.28051281 246.40744495 C-118.28288845 247.86451602 -118.28288845 247.86451602 -118.28531209 249.35102287 C-118.30321032 260.38166735 -118.31945909 271.41231388 -118.33448792 282.44296265 C-118.33586379 283.4502399 -118.33723966 284.45751716 -118.33865722 285.49531797 C-118.36063976 301.85843908 -118.37135843 318.22155243 -118.37885866 334.58468571 C-118.3869213 351.3997992 -118.41017554 368.21484626 -118.44681233 385.02992183 C-118.46885239 395.39615661 -118.47849745 405.76225491 -118.472312 416.12851194 C-118.46914459 423.22034138 -118.48041971 430.31205378 -118.50320641 437.403847 C-118.51590625 441.49759392 -118.5220052 445.59108019 -118.51078987 449.68483734 C-118.50066269 453.42927648 -118.50878372 457.17320825 -118.53165283 460.91758714 C-118.53905239 462.91911094 -118.52668052 464.92067738 -118.51369268 466.92217273 C-118.52452357 468.10524093 -118.53535446 469.28830914 -118.54651356 470.5072279 C-118.54749037 471.53041722 -118.54846717 472.55360655 -118.54947358 473.60780162 C-119.18449197 476.97179347 -120.41233805 478.15803758 -123.05152893 480.26742554 C-125.05152893 480.79867554 -125.05152893 480.79867554 -127.05152893 480.76742554 C-127.71152893 480.77773804 -128.37152893 480.78805054 -129.05152893 480.79867554 C-131.98761234 480.01877838 -133.14715531 478.60739136 -135.05152893 476.26742554 C-135.55292559 473.50455046 -135.55292559 473.50455046 -135.55489349 470.25569916 C-135.56532448 469.01649672 -135.57575547 467.77729428 -135.58650255 466.50054026 C-135.57785386 465.12298764 -135.56882721 463.74543735 -135.5594635 462.3678894 C-135.56407108 460.90613098 -135.57042304 459.44437718 -135.57837248 457.98263311 C-135.59511196 453.9597954 -135.58679834 449.93733596 -135.5744276 445.91449666 C-135.56539692 441.57737587 -135.57933784 437.24032125 -135.59034729 432.9032135 C-135.60816554 424.39992731 -135.60427577 415.8967821 -135.59269673 407.39349031 C-135.58366616 400.47488529 -135.58243681 393.5563198 -135.58679199 386.63771057 C-135.58740492 385.65322303 -135.58801786 384.66873548 -135.58864936 383.65441498 C-135.5899283 381.65428673 -135.59122515 379.65415849 -135.59253973 377.65403026 C-135.60395765 358.87762185 -135.5908178 340.10129142 -135.56933826 321.3248958 C-135.55151064 305.24433909 -135.55453315 289.16389806 -135.57301331 273.08334351 C-135.5944755 254.39930267 -135.60281209 235.71533054 -135.59056425 217.03127909 C-135.58929013 215.03358365 -135.58803265 213.03588821 -135.58679199 211.03819275 C-135.58617489 210.05539958 -135.58555779 209.07260641 -135.58492199 208.06003162 C-135.58148176 201.16490757 -135.58726962 194.26982735 -135.59671021 187.37471008 C-135.60799307 178.94867979 -135.60476109 170.52279832 -135.58358723 162.09678483 C-135.57315379 157.80468144 -135.56882072 153.51282506 -135.58218384 149.22072411 C-135.64046755 128.82232172 -135.48646453 108.87067551 -127.86402893 89.57992554 C-127.57068665 88.81357788 -127.27734436 88.04723022 -126.97511292 87.25765991 C-121.99677451 74.65846503 -115.57185667 62.8235838 -107.05152893 52.26742554 C-106.62533264 51.73053101 -106.19913635 51.19363647 -105.76002502 50.64047241 C-88.08202202 28.51646724 -64.88043707 13.17139289 -37.80152893 4.89242554 C-37.02261292 4.65362671 -36.2436969 4.41482788 -35.44117737 4.16879272 C-23.74155082 0.79887111 -12.12376716 -0.029543 0 0 Z " fill="#000000" transform="translate(151.05152893066406,15.732574462890625)"/>
<path d="M0 0 C13.28192204 10.64734106 22.54297585 22.33582001 29.5 37.75 C29.77424805 38.34965576 30.04849609 38.94931152 30.33105469 39.56713867 C34.85682795 50.17740648 36.16392885 61.05359635 36.0625 72.5 C36.05347656 73.72759033 36.04445313 74.95518066 36.03515625 76.2199707 C35.55520568 101.4357069 24.6907514 122.65137539 6.625 140.08984375 C-14.39370685 158.28963548 -39.13606381 163.49327612 -66.375 161.6875 C-88.12233607 159.33968211 -108.2571512 147.0933243 -122.375 130.6875 C-139.3785885 108.91495847 -144.9156114 84.3254146 -142.10693359 57.08789062 C-138.79057236 35.07888507 -125.76708142 15.02438656 -108.44921875 1.3828125 C-76.23853666 -21.9787811 -32.73250075 -23.56740054 0 0 Z M-105.09765625 21.28125 C-119.4940398 36.49252318 -126.04535191 54.85530525 -125.84765625 75.54980469 C-125.30909805 92.43828745 -119.1905479 106.80199078 -108.375 119.6875 C-107.653125 120.6775 -106.93125 121.6675 -106.1875 122.6875 C-96.36328886 134.16497644 -79.27172264 142.85001879 -64.375 144.6875 C-41.30199716 146.36350505 -21.70713137 141.43768991 -3.90039062 126.07910156 C4.58027237 118.34226112 10.23478131 109.21470875 14.625 98.6875 C15.05941406 97.6459375 15.49382812 96.604375 15.94140625 95.53125 C22.19954538 77.56363102 19.98336525 56.9192634 11.8984375 39.95703125 C2.108283 20.81785964 -14.5133737 8.55251162 -34.73046875 1.9140625 C-60.20043263 -4.6804122 -86.2624735 3.45345952 -105.09765625 21.28125 Z " fill="#000000" transform="translate(424.375,199.3125)"/>
<path d="M0 0 C17.43524338 13.46794249 30.26404154 32.95363152 33.125 55.125 C35.13445869 81.14643244 30.14179983 103.83089057 13.125 124.125 C2.76533592 136.07845855 -10.05986384 143.79360152 -24.875 149.125 C-25.81730469 149.4653125 -26.75960937 149.805625 -27.73046875 150.15625 C-49.08912299 156.38225448 -72.93591512 152.70314083 -92.18359375 142.2578125 C-112.78251878 130.5912583 -126.40141537 112.61209372 -133.1875 90.0625 C-139.06061077 66.95190885 -134.8172785 43.36942678 -122.875 23.125 C-110.932075 4.10745075 -92.62715929 -9.15198671 -70.83251953 -14.69067383 C-45.55242072 -20.10867057 -20.99166693 -14.58492752 0 0 Z M-99.59375 20.75 C-113.18273821 34.89743978 -118.39247789 51.86623755 -118.22436523 71.05029297 C-117.7575387 89.5619432 -110.0321331 105.26333161 -96.875 118.125 C-82.71188576 130.4645373 -65.08681585 137.03341463 -46.27734375 135.91015625 C-27.62636335 133.88497224 -10.92470267 126.09596935 1.25 111.59375 C14.75679182 93.78934261 18.33636549 75.45343471 15.69140625 53.53125 C12.02566115 36.5914093 1.22219032 21.45375456 -13.0625 11.8359375 C-41.82863806 -5.66346315 -74.85878368 -2.41946213 -99.59375 20.75 Z " fill="#000000" transform="translate(222.875,303.875)"/>
<path d="M0 0 C17.43524338 13.46794249 30.26404154 32.95363152 33.125 55.125 C35.13445869 81.14643244 30.14179983 103.83089057 13.125 124.125 C2.76533592 136.07845855 -10.05986384 143.79360152 -24.875 149.125 C-25.81730469 149.4653125 -26.75960937 149.805625 -27.73046875 150.15625 C-49.08912299 156.38225448 -72.93591512 152.70314083 -92.18359375 142.2578125 C-112.78251878 130.5912583 -126.40141537 112.61209372 -133.1875 90.0625 C-139.06061077 66.95190885 -134.8172785 43.36942678 -122.875 23.125 C-110.932075 4.10745075 -92.62715929 -9.15198671 -70.83251953 -14.69067383 C-45.55242072 -20.10867057 -20.99166693 -14.58492752 0 0 Z M-99.59375 20.75 C-113.18273821 34.89743978 -118.39247789 51.86623755 -118.22436523 71.05029297 C-117.7575387 89.5619432 -110.0321331 105.26333161 -96.875 118.125 C-82.71188576 130.4645373 -65.08681585 137.03341463 -46.27734375 135.91015625 C-27.62636335 133.88497224 -10.92470267 126.09596935 1.25 111.59375 C14.75679182 93.78934261 18.33636549 75.45343471 15.69140625 53.53125 C12.02566115 36.5914093 1.22219032 21.45375456 -13.0625 11.8359375 C-41.82863806 -5.66346315 -74.85878368 -2.41946213 -99.59375 20.75 Z " fill="#000000" transform="translate(222.875,103.875)"/>
<path d="M0 0 C7.23823985 7.64122537 9.69737762 16.56708906 9.82421875 26.92578125 C8.84929227 37.43332223 4.45324745 45.69909483 -3.17578125 52.92578125 C-11.13184673 59.00439994 -19.99218932 61.55521976 -29.984375 60.6796875 C-40.53489936 59.02613791 -49.14302302 54.512961 -55.71875 45.90625 C-61.84565578 36.50926547 -62.21014856 26.84094233 -61.17578125 15.92578125 C-60.35468963 12.46879892 -59.1383347 9.86961142 -57.17578125 6.92578125 C-56.76328125 6.24515625 -56.35078125 5.56453125 -55.92578125 4.86328125 C-50.12125097 -3.84351417 -41.67325265 -8.70633003 -31.61328125 -10.82421875 C-19.38513321 -12.1150981 -8.87276291 -8.14062923 0 0 Z M-40.98828125 14.05078125 C-45.06741356 19.41192658 -44.78937201 24.33184116 -44.17578125 30.92578125 C-41.46657607 36.65679221 -37.00640569 40.57200434 -31.30078125 43.30078125 C-25.47423374 44.46609075 -21.02411764 43.67214914 -15.92578125 40.80078125 C-10.86464562 37.34051563 -8.88284555 33.47121275 -7.23828125 27.55078125 C-7.13917967 21.8028894 -8.13292762 17.16041297 -12.08984375 12.83203125 C-17.95112201 7.6314789 -21.33454586 6.56391313 -29.1953125 6.6484375 C-34.68784699 7.15953835 -37.54266082 10.0795577 -40.98828125 14.05078125 Z " fill="#000000" transform="translate(397.17578125,391.07421875)"/>
<path d="M0 0 C7.23823985 7.64122537 9.69737762 16.56708906 9.82421875 26.92578125 C8.84929227 37.43332223 4.45324745 45.69909483 -3.17578125 52.92578125 C-11.13184673 59.00439994 -19.99218932 61.55521976 -29.984375 60.6796875 C-40.53489936 59.02613791 -49.14302302 54.512961 -55.71875 45.90625 C-61.84565578 36.50926547 -62.21014856 26.84094233 -61.17578125 15.92578125 C-60.35468963 12.46879892 -59.1383347 9.86961142 -57.17578125 6.92578125 C-56.76328125 6.24515625 -56.35078125 5.56453125 -55.92578125 4.86328125 C-50.12125097 -3.84351417 -41.67325265 -8.70633003 -31.61328125 -10.82421875 C-19.38513321 -12.1150981 -8.87276291 -8.14062923 0 0 Z M-40.98828125 14.05078125 C-45.06741356 19.41192658 -44.78937201 24.33184116 -44.17578125 30.92578125 C-41.46657607 36.65679221 -37.00640569 40.57200434 -31.30078125 43.30078125 C-25.47423374 44.46609075 -21.02411764 43.67214914 -15.92578125 40.80078125 C-10.86464562 37.34051563 -8.88284555 33.47121275 -7.23828125 27.55078125 C-7.13917967 21.8028894 -8.13292762 17.16041297 -12.08984375 12.83203125 C-17.95112201 7.6314789 -21.33454586 6.56391313 -29.1953125 6.6484375 C-34.68784699 7.15953835 -37.54266082 10.0795577 -40.98828125 14.05078125 Z " fill="#000000" transform="translate(397.17578125,103.07421875)"/>
</svg>
