<svg data-logo="logo" xmlns="http://www.w3.org/2000/svg" viewBox="0 0 180 42">
        <g style="opacity: 1;" id="logogram" transform="translate(0, 1) rotate(0)"><path d="M19.2614 5.82192V0H0.905273V40H19.2614V34.1781C15.5012 34.1781 11.8949 32.6842 9.23601 30.0253C6.57711 27.3664 5.08335 23.7603 5.08335 20C5.08335 16.2397 6.57711 12.6334 9.23601 9.97459C11.8949 7.31568 15.5012 5.82192 19.2614 5.82192Z" fill="#000000"></path><path d="M19.2614 5.8219V34.1781C23.0217 34.1781 26.628 32.6842 29.2869 30.0253C31.9458 27.3664 33.4395 23.7603 33.4395 20C33.4395 16.2397 31.9458 12.6334 29.2869 9.97457C26.628 7.31567 23.0217 5.8219 19.2614 5.8219Z" fill="#000000"></path></g>
        <g style="opacity: 1;" id="logotype" transform="translate(40, 8.5)"><path fill="#000000" d="M17.52 25L17.52 25L13.70 25Q10.94 25 9.43 23.53Q7.93 22.06 7.93 19.29L7.93 19.29L7.93 8.20Q7.93 5.43 9.43 3.96Q10.94 2.49 13.70 2.49L13.70 2.49L17.52 2.49Q20.25 2.49 21.77 3.98Q23.29 5.47 23.29 8.20L23.29 8.20L23.29 9.84Q23.29 10.61 22.52 10.61L22.52 10.61L19.58 10.61Q18.84 10.61 18.84 9.84L18.84 9.84L18.84 8.41Q18.84 7.29 18.37 6.82Q17.90 6.34 16.78 6.34L16.78 6.34L14.40 6.34Q13.32 6.34 12.84 6.82Q12.37 7.29 12.37 8.41L12.37 8.41L12.37 19.09Q12.37 20.20 12.84 20.68Q13.32 21.15 14.40 21.15L14.40 21.15L16.78 21.15Q17.90 21.15 18.37 20.68Q18.84 20.20 18.84 19.09L18.84 19.09L18.84 17.65Q18.84 16.88 19.58 16.88L19.58 16.88L22.52 16.88Q23.29 16.88 23.29 17.65L23.29 17.65L23.29 19.29Q23.29 22.02 21.77 23.51Q20.25 25 17.52 25ZM29.35 25L29.35 25L26.37 25Q25.64 25 25.64 24.27L25.64 24.27L25.64 1.13Q25.64 0.39 26.37 0.39L26.37 0.39L29.35 0.39Q30.08 0.39 30.08 1.13L30.08 1.13L30.08 9.04L30.22 9.04Q30.99 7.15 33.65 7.15L33.65 7.15L34.77 7.15Q40.27 7.15 40.27 12.85L40.27 12.85L40.27 24.27Q40.27 25 39.50 25L39.50 25L36.55 25Q35.82 25 35.82 24.27L35.82 24.27L35.82 13.06Q35.82 11.94 35.35 11.47Q34.88 11.00 33.76 11.00L33.76 11.00L32.50 11.00Q30.08 11.00 30.08 13.66L30.08 13.66L30.08 24.27Q30.08 25 29.35 25ZM46.53 25L46.53 25L43.56 25Q42.82 25 42.82 24.27L42.82 24.27L42.82 7.88Q42.82 7.15 43.56 7.15L43.56 7.15L46.53 7.15Q47.27 7.15 47.27 7.88L47.27 7.88L47.27 9.07L47.41 9.07Q47.79 8.13 48.77 7.64Q49.75 7.15 50.84 7.15L50.84 7.15L52.10 7.15Q52.80 7.15 52.80 7.88L52.80 7.88L52.80 10.30Q52.80 10.72 52.64 10.88Q52.48 11.03 52.10 11.00L52.10 11.00L49.68 11.00Q47.27 11.00 47.27 13.73L47.27 13.73L47.27 24.27Q47.27 25 46.53 25ZM54.09 4.14L54.09 4.14L54.09 1.09Q54.09 0.39 54.79 0.39L54.79 0.39L57.84 0.39Q58.54 0.39 58.54 1.06L58.54 1.06L58.54 4.14Q58.54 4.84 57.84 4.84L57.84 4.84L54.79 4.84Q54.09 4.84 54.09 4.14ZM54.09 24.27L54.09 24.27L54.09 7.88Q54.09 7.15 54.79 7.15L54.79 7.15L57.80 7.15Q58.54 7.15 58.54 7.88L58.54 7.88L58.54 24.27Q58.54 24.72 58.38 24.86Q58.22 25 57.84 25L57.84 25L54.83 25Q54.09 25 54.09 24.27ZM68.20 25L68.20 25L61.55 25Q60.85 25 60.85 24.27L60.85 24.27L60.85 22.02Q60.85 21.64 60.99 21.48Q61.13 21.32 61.55 21.32L61.55 21.32L67.39 21.32Q69.11 21.32 69.11 20.27L69.11 20.27L69.11 20.10Q69.11 19.26 67.67 18.49L67.67 18.49L64.21 16.56Q62.42 15.65 61.58 14.60Q60.74 13.55 60.74 11.91L60.74 11.91Q60.74 9.46 62.04 8.30Q63.33 7.15 66.10 7.15L66.10 7.15L71.94 7.15Q72.64 7.15 72.64 7.88L72.64 7.88L72.64 10.16Q72.64 10.54 72.50 10.70Q72.36 10.86 71.94 10.86L71.94 10.86L67.08 10.86Q65.36 10.86 65.36 11.73L65.36 11.73L65.36 11.91Q65.36 12.68 66.87 13.48L66.87 13.48L70.40 15.58Q72.22 16.56 72.96 17.60Q73.69 18.63 73.69 20.31L73.69 20.31Q73.69 25 68.20 25ZM85.24 25L85.24 25L81.43 25Q78.66 25 77.16 23.53Q75.65 22.06 75.65 19.29L75.65 19.29L75.65 8.20Q75.65 5.43 77.16 3.96Q78.66 2.49 81.43 2.49L81.43 2.49L85.24 2.49Q87.97 2.49 89.49 3.98Q91.02 5.47 91.02 8.20L91.02 8.20L91.02 9.84Q91.02 10.61 90.25 10.61L90.25 10.61L87.31 10.61Q86.57 10.61 86.57 9.84L86.57 9.84L86.57 8.41Q86.57 7.29 86.10 6.82Q85.63 6.34 84.51 6.34L84.51 6.34L82.13 6.34Q81.04 6.34 80.57 6.82Q80.10 7.29 80.10 8.41L80.10 8.41L80.10 19.09Q80.10 20.20 80.57 20.68Q81.04 21.15 82.13 21.15L82.13 21.15L84.51 21.15Q85.63 21.15 86.10 20.68Q86.57 20.20 86.57 19.09L86.57 19.09L86.57 17.65Q86.57 16.88 87.31 16.88L87.31 16.88L90.25 16.88Q91.02 16.88 91.02 17.65L91.02 17.65L91.02 19.29Q91.02 22.02 89.49 23.51Q87.97 25 85.24 25ZM99.63 25L99.63 25L98.78 25Q96.02 25 94.52 23.53Q93.01 22.06 93.01 19.29L93.01 19.29L93.01 12.85Q93.01 10.09 94.52 8.62Q96.02 7.15 98.78 7.15L98.78 7.15L106.87 7.15Q107.64 7.15 107.64 7.88L107.64 7.88L107.64 24.27Q107.64 25 106.87 25L106.87 25L103.93 25Q103.20 25 103.20 24.27L103.20 24.27L103.20 23.11L103.06 23.11Q102.67 24.05 101.69 24.53Q100.71 25 99.63 25ZM103.20 18.49L103.20 18.49L103.20 11.38Q103.20 11.00 102.78 11.00L102.78 11.00L99.48 11.00Q98.37 11.00 97.91 11.47Q97.45 11.94 97.45 13.06L97.45 13.06L97.45 19.09Q97.45 20.20 97.91 20.68Q98.37 21.15 99.48 21.15L99.48 21.15L100.78 21.15Q103.20 21.15 103.20 18.49ZM117.13 25L117.13 25L110.47 25Q109.77 25 109.77 24.27L109.77 24.27L109.77 22.02Q109.77 21.64 109.91 21.48Q110.05 21.32 110.47 21.32L110.47 21.32L116.32 21.32Q118.03 21.32 118.03 20.27L118.03 20.27L118.03 20.10Q118.03 19.26 116.60 18.49L116.60 18.49L113.13 16.56Q111.35 15.65 110.51 14.60Q109.67 13.55 109.67 11.91L109.67 11.91Q109.67 9.46 110.96 8.30Q112.26 7.15 115.02 7.15L115.02 7.15L120.87 7.15Q121.57 7.15 121.57 7.88L121.57 7.88L121.57 10.16Q121.57 10.54 121.43 10.70Q121.29 10.86 120.87 10.86L120.87 10.86L116.00 10.86Q114.29 10.86 114.29 11.73L114.29 11.73L114.29 11.91Q114.29 12.68 115.79 13.48L115.79 13.48L119.33 15.58Q121.15 16.56 121.88 17.60Q122.62 18.63 122.62 20.31L122.62 20.31Q122.62 25 117.13 25ZM137.74 25L137.74 25L130.00 25Q127.24 25 125.73 23.53Q124.23 22.06 124.23 19.29L124.23 19.29L124.23 12.85Q124.23 10.09 125.73 8.62Q127.24 7.15 130.00 7.15L130.00 7.15L132.77 7.15Q135.53 7.15 137.04 8.62Q138.54 10.09 138.54 12.85L138.54 12.85L138.54 17.30Q138.54 18.04 137.81 18.04L137.81 18.04L129.02 18.04Q128.60 18.04 128.60 18.42L128.60 18.42L128.60 19.19Q128.60 20.27 129.08 20.75Q129.55 21.22 130.67 21.22L130.67 21.22L137.74 21.22Q138.47 21.22 138.47 21.99L138.47 21.99L138.47 24.30Q138.47 24.68 138.32 24.84Q138.16 25 137.74 25ZM129.02 15.06L129.02 15.06L133.78 15.06Q134.17 15.06 134.17 14.67L134.17 14.67L134.17 12.99Q134.17 11.87 133.71 11.42Q133.26 10.96 132.14 10.96L132.14 10.96L130.67 10.96Q129.55 10.96 129.09 11.42Q128.64 11.87 128.64 12.99L128.64 12.99L128.64 14.67Q128.64 15.06 129.02 15.06Z"></path></g>
        
      </svg>